<?xml version="1.0" encoding="utf-8"?>
<!-- Uploaded to: SVG Repo, www.svgrepo.com, Generator: SVG Repo Mixer Tools -->
<svg fill="#000000" width="800px" height="800px" viewBox="0 0 32 32" version="1.1" xmlns="http://www.w3.org/2000/svg">
<title>behance</title>
<path d="M5.067 16.83h4.415c0.050-0.003 0.109-0.004 0.169-0.004 0.729 0 1.405 0.228 1.96 0.616l-0.011-0.007c0.499 0.443 0.812 1.087 0.812 1.803 0 0.082-0.004 0.163-0.012 0.243l0.001-0.010c0.001 0.031 0.002 0.068 0.002 0.105 0 0.396-0.091 0.772-0.252 1.106l0.007-0.015c-0.158 0.302-0.381 0.55-0.653 0.732l-0.007 0.004c-0.274 0.182-0.595 0.319-0.94 0.389l-0.017 0.003c-0.328 0.073-0.705 0.115-1.091 0.115-0.017 0-0.034-0-0.050-0l0.003 0h-4.335zM24.382 14.086c0.057-0.004 0.123-0.007 0.19-0.007 0.731 0 1.395 0.286 1.887 0.752l-0.001-0.001c0.486 0.569 0.798 1.301 0.845 2.104l0 0.010h-5.969c0.026-0.324 0.086-0.624 0.175-0.91l-0.008 0.029c0.105-0.362 0.274-0.676 0.495-0.946l-0.004 0.005c0.255-0.302 0.564-0.549 0.913-0.729l0.017-0.008c0.394-0.19 0.857-0.302 1.346-0.302 0.040 0 0.080 0.001 0.119 0.002l-0.006-0zM24.492 11.315c-0.027-0-0.058-0.001-0.090-0.001-0.974 0-1.901 0.201-2.741 0.563l0.045-0.017c-1.653 0.709-2.927 2.035-3.549 3.682l-0.015 0.045c-0.312 0.813-0.493 1.753-0.493 2.735 0 0.021 0 0.042 0 0.062l-0-0.003c-0 0.027-0 0.058-0 0.090 0 0.989 0.176 1.937 0.498 2.814l-0.018-0.057c0.318 0.863 0.779 1.603 1.36 2.23l-0.004-0.004c0.593 0.614 1.312 1.102 2.116 1.422l0.041 0.014c0.814 0.321 1.757 0.507 2.743 0.507 0.037 0 0.075-0 0.112-0.001l-0.006 0c0.063 0.002 0.136 0.003 0.21 0.003 1.355 0 2.619-0.389 3.686-1.061l-0.029 0.017c1.154-0.826 1.999-2.017 2.372-3.403l0.010-0.043h-3.23c-0.192 0.501-0.533 0.908-0.97 1.177l-0.010 0.006c-0.514 0.352-1.15 0.562-1.835 0.562-0.029 0-0.058-0-0.086-0.001l0.004 0c-0.064 0.005-0.139 0.007-0.215 0.007-0.829 0-1.585-0.309-2.161-0.818l0.003 0.003c-0.566-0.652-0.911-1.508-0.911-2.446 0-0.051 0.001-0.103 0.003-0.154l-0 0.007h9.638c0.016-0.206 0.025-0.445 0.025-0.687 0-0.812-0.102-1.6-0.295-2.352l0.014 0.066c-0.241-0.967-0.646-1.815-1.188-2.556l0.014 0.020c-0.547-0.74-1.245-1.337-2.050-1.755l-0.033-0.016c-0.821-0.418-1.791-0.663-2.818-0.663-0.053 0-0.105 0.001-0.157 0.002l0.008-0zM5.067 9.745h3.8c0.015-0 0.034-0 0.052-0 0.351 0 0.694 0.033 1.026 0.097l-0.034-0.005c0.336 0.055 0.637 0.169 0.906 0.331l-0.011-0.006c0.264 0.156 0.476 0.373 0.622 0.633l0.004 0.008c0.143 0.284 0.227 0.618 0.227 0.972 0 0.030-0.001 0.061-0.002 0.091l0-0.004c0.006 0.055 0.009 0.12 0.009 0.185 0 0.599-0.272 1.135-0.699 1.49l-0.003 0.003c-0.466 0.326-1.045 0.521-1.67 0.521-0.041 0-0.083-0.001-0.124-0.003l0.006 0h-4.11zM20.583 7.841v1.82h7.478v-1.821zM1.004 6.603v18.448h8.942c0.005 0 0.012 0 0.018 0 0.851 0 1.675-0.113 2.459-0.325l-0.066 0.015c0.799-0.206 1.499-0.535 2.119-0.971l-0.020 0.014c0.61-0.434 1.102-0.995 1.447-1.645l0.012-0.026c0.339-0.665 0.538-1.451 0.538-2.284 0-0.047-0.001-0.095-0.002-0.142l0 0.007c0.002-0.046 0.002-0.101 0.002-0.155 0-1.044-0.312-2.014-0.848-2.824l0.012 0.019c-0.606-0.842-1.484-1.455-2.503-1.711l-0.030-0.006c0.767-0.342 1.402-0.862 1.873-1.508l0.009-0.013c0.398-0.616 0.635-1.369 0.635-2.177 0-0.052-0.001-0.104-0.003-0.156l0 0.007c0.002-0.047 0.002-0.102 0.002-0.157 0-0.726-0.156-1.416-0.437-2.038l0.013 0.031c-0.279-0.576-0.689-1.051-1.192-1.4l-0.012-0.008c-0.533-0.354-1.158-0.618-1.83-0.755l-0.034-0.006c-0.69-0.149-1.484-0.235-2.297-0.235-0.039 0-0.078 0-0.117 0.001l0.006-0z"></path>
</svg>