<!DOCTYPE svg PUBLIC "-//W3C//DTD SVG 1.1//EN" "http://www.w3.org/Graphics/SVG/1.1/DTD/svg11.dtd">
<!-- Uploaded to: SVG Repo, www.svgrepo.com, Transformed by: SVG Repo Mixer Tools -->
<svg fill="#20BEFF" width="800px" height="800px" viewBox="0 0 32 32" version="1.1" xmlns="http://www.w3.org/2000/svg">
<g id="SVGRepo_bgCarrier" stroke-width="0"/>
<g id="SVGRepo_tracerCarrier" stroke-linecap="round" stroke-linejoin="round"/>
<g id="SVGRepo_iconCarrier"> <title>kaggle</title> <path d="M9.538 16.211v1.277c-0.313 0.301-0.739 0.486-1.208 0.486-0.078 0-0.155-0.005-0.23-0.015l0.009 0.001c-0.212-0.014-0.404-0.086-0.565-0.2l0.003 0.002c-0.151-0.102-0.256-0.263-0.281-0.45l-0-0.003q-0.064-0.498 0.562-0.766c0.504-0.177 1.088-0.296 1.693-0.331l0.017-0.001zM19.984 14.143c0.060-0.009 0.129-0.014 0.199-0.014 0.568 0 1.057 0.337 1.279 0.822l0.004 0.009h-0v2.106c-0.234 0.496-0.73 0.833-1.304 0.833-0.076 0-0.15-0.006-0.223-0.017l0.008 0.001c-0.015 0.001-0.032 0.001-0.050 0.001-0.354 0-0.674-0.142-0.908-0.371l0 0c-0.314-0.351-0.506-0.817-0.506-1.328 0-0.063 0.003-0.125 0.009-0.187l-0.001 0.008q0-1.863 1.493-1.864zM13.983 14.143c0.060-0.009 0.129-0.014 0.199-0.014 0.568 0 1.057 0.337 1.278 0.822l0.004 0.009v2.106c-0.234 0.496-0.73 0.833-1.304 0.833-0.076 0-0.15-0.006-0.223-0.017l0.008 0.001c-0.015 0.001-0.032 0.001-0.050 0.001-0.353 0-0.674-0.142-0.907-0.371l0 0c-0.314-0.351-0.506-0.817-0.506-1.327 0-0.063 0.003-0.125 0.009-0.187l-0.001 0.008q0-1.863 1.493-1.864zM28.26 14.015c0.009-0 0.020-0 0.032-0 0.392 0 0.749 0.15 1.016 0.397l-0.001-0.001c0.286 0.235 0.468 0.587 0.472 0.982v0.001h-3.076c0.067-0.399 0.265-0.743 0.547-0.994l0.002-0.001c0.261-0.237 0.61-0.383 0.992-0.383 0.006 0 0.011 0 0.017 0h-0.001zM28.286 13.033c-0.030-0.001-0.066-0.002-0.102-0.002-0.74 0-1.409 0.304-1.889 0.793l-0 0c-0.514 0.531-0.831 1.255-0.831 2.053 0 0.023 0 0.046 0.001 0.070l-0-0.003c-0.001 0.031-0.002 0.067-0.002 0.104 0 0.809 0.322 1.542 0.845 2.079l-0.001-0.001c0.534 0.537 1.272 0.869 2.089 0.869 0.029 0 0.057-0 0.086-0.001l-0.004 0c0.018 0 0.039 0.001 0.060 0.001 0.781 0 1.502-0.259 2.080-0.696l-0.009 0.006c0.068-0.051 0.068-0.11 0-0.179l-0.6-0.613c-0.051-0.051-0.115-0.051-0.192 0-0.345 0.248-0.775 0.396-1.241 0.396-0.008 0-0.016-0-0.024-0h0.001c-0.021 0.001-0.045 0.001-0.070 0.001-0.474 0-0.909-0.169-1.248-0.451l0.003 0.003c-0.292-0.264-0.489-0.629-0.535-1.039l-0.001-0.007h4.148c0.005 0.001 0.010 0.001 0.016 0.001 0.062 0 0.113-0.051 0.113-0.113 0-0.006-0-0.011-0.001-0.017l0 0.001 0.012-0.28c0.006-0.071 0.010-0.153 0.010-0.235 0-0.741-0.291-1.413-0.764-1.91l0.001 0.001c-0.475-0.511-1.151-0.83-1.901-0.83-0.018 0-0.036 0-0.054 0.001l0.003-0zM19.856 13.033c-0.028-0.001-0.062-0.002-0.095-0.002-0.769 0-1.448 0.387-1.853 0.977l-0.005 0.008c-0.369 0.527-0.589 1.182-0.589 1.888 0 0.036 0.001 0.072 0.002 0.108l-0-0.005c-0.002 0.038-0.002 0.082-0.002 0.127 0 0.723 0.23 1.392 0.622 1.938l-0.007-0.010c0.422 0.569 1.092 0.933 1.847 0.933 0.033 0 0.066-0.001 0.098-0.002l-0.005 0c0.036 0.002 0.079 0.003 0.122 0.003 0.557 0 1.070-0.188 1.479-0.505l-0.006 0.004v0.664q0 1.608-1.545 1.608c-0.56-0.046-1.050-0.313-1.389-0.712l-0.002-0.003c-0.022-0.024-0.054-0.038-0.089-0.038-0 0-0 0-0.001 0h0c-0.002-0-0.004-0-0.007-0-0.037 0-0.071 0.015-0.095 0.039l-0.6 0.6c-0.022 0.023-0.036 0.055-0.036 0.090 0 0.041 0.019 0.077 0.048 0.101l0 0q0.255 0.217 0.447 0.364t0.332 0.236c0.403 0.233 0.886 0.37 1.401 0.37 0.001 0 0.002 0 0.003 0h-0c0.049 0.003 0.106 0.005 0.164 0.005 0.702 0 1.339-0.277 1.809-0.727l-0.001 0.001c0.437-0.508 0.703-1.175 0.703-1.903 0-0.074-0.003-0.147-0.008-0.219l0.001 0.010v-5.706c0.001-0.005 0.001-0.010 0.001-0.016 0-0.062-0.050-0.113-0.113-0.113-0.006 0-0.011 0-0.017 0.001l0.001-0h-0.881c-0.005-0.001-0.010-0.001-0.016-0.001-0.062 0-0.113 0.050-0.113 0.113 0 0.006 0 0.011 0.001 0.017l-0-0.001v0.255c-0.42-0.312-0.949-0.499-1.522-0.499-0.030 0-0.060 0.001-0.090 0.002l0.004-0zM13.855 13.033c-0.028-0.001-0.062-0.002-0.095-0.002-0.769 0-1.448 0.387-1.853 0.977l-0.005 0.008c-0.368 0.527-0.589 1.182-0.589 1.888 0 0.036 0.001 0.072 0.002 0.109l-0-0.005c-0.002 0.038-0.002 0.082-0.002 0.127 0 0.723 0.23 1.392 0.622 1.938l-0.007-0.010c0.422 0.569 1.092 0.933 1.847 0.933 0.033 0 0.066-0.001 0.098-0.002l-0.005 0c0.036 0.002 0.079 0.003 0.122 0.003 0.557 0 1.070-0.188 1.479-0.505l-0.006 0.004v0.664q0 1.608-1.545 1.608c-0.56-0.046-1.050-0.313-1.389-0.712l-0.002-0.003c-0.022-0.024-0.054-0.038-0.089-0.038-0 0-0 0-0.001 0h0c-0.002-0-0.004-0-0.007-0-0.037 0-0.071 0.015-0.096 0.039l-0.6 0.6c-0.022 0.023-0.036 0.055-0.036 0.090 0 0.041 0.019 0.078 0.049 0.101l0 0q0.255 0.217 0.447 0.364t0.332 0.236c0.403 0.233 0.886 0.37 1.401 0.37 0.001 0 0.002 0 0.003 0h-0c0.049 0.003 0.106 0.005 0.164 0.005 0.702 0 1.339-0.277 1.809-0.727l-0.001 0.001c0.437-0.508 0.703-1.175 0.703-1.903 0-0.074-0.003-0.146-0.008-0.219l0.001 0.010v-5.706c0.001-0.005 0.001-0.010 0.001-0.016 0-0.062-0.050-0.113-0.113-0.113-0.006 0-0.011 0-0.017 0.001l0.001-0h-0.881c-0.005-0.001-0.010-0.001-0.016-0.001-0.062 0-0.113 0.050-0.113 0.113 0 0.006 0 0.011 0.001 0.017l-0-0.001v0.255c-0.42-0.312-0.949-0.499-1.522-0.499-0.030 0-0.061 0.001-0.091 0.002l0.004-0zM8.453 13.033c-0.769 0.010-1.476 0.262-2.052 0.684l0.010-0.007c-0.068 0.068-0.081 0.127-0.038 0.179l0.459 0.651c0.034 0.060 0.090 0.068 0.166 0.025 0.402-0.303 0.905-0.492 1.451-0.511l0.004-0c0.025-0.002 0.055-0.004 0.085-0.004 0.557 0 1.009 0.452 1.009 1.009 0 0.046-0.003 0.092-0.009 0.136l0.001-0.005c-0.687 0.056-1.318 0.165-1.929 0.323l0.078-0.017q-1.557 0.447-1.557 1.698c-0 0.013-0.001 0.028-0.001 0.043 0 0.502 0.222 0.952 0.573 1.257l0.002 0.002c0.361 0.31 0.835 0.498 1.352 0.498 0.014 0 0.028-0 0.042-0l-0.002 0c0.030 0.001 0.065 0.002 0.1 0.002 0.503 0 0.969-0.159 1.35-0.428l-0.007 0.005v0.179c0 0.085 0.047 0.127 0.14 0.127h0.881c0.005 0.001 0.010 0.001 0.016 0.001 0.062 0 0.113-0.050 0.113-0.113 0-0.006-0-0.011-0.001-0.017l0 0.001v-3.536c0.004-0.048 0.007-0.105 0.007-0.162 0-0.674-0.333-1.271-0.843-1.634l-0.006-0.004c-0.373-0.241-0.828-0.384-1.317-0.384-0.026 0-0.052 0-0.078 0.001l0.004-0zM23.678 10.186c-0.005-0.001-0.010-0.001-0.016-0.001-0.062 0-0.113 0.050-0.113 0.113 0 0.006 0 0.011 0.001 0.016l-0-0.001v8.438c-0.001 0.005-0.001 0.010-0.001 0.016 0 0.062 0.050 0.113 0.113 0.113 0.006 0 0.011-0 0.017-0.001l-0.001 0h0.881c0.005 0.001 0.010 0.001 0.016 0.001 0.062 0 0.113-0.050 0.113-0.113 0-0.006-0-0.011-0.001-0.017l0 0.001v-8.438c0.001-0.005 0.001-0.010 0.001-0.016 0-0.062-0.050-0.113-0.113-0.113-0.006 0-0.011 0-0.017 0.001l0.001-0zM1.132 10.186c-0.005-0.001-0.010-0.001-0.016-0.001-0.062 0-0.113 0.051-0.113 0.113 0 0.006 0 0.011 0.001 0.016l-0-0.001v8.438c-0.001 0.005-0.001 0.010-0.001 0.016 0 0.062 0.051 0.113 0.113 0.113 0.006 0 0.011-0 0.017-0.001l-0.001 0h0.881c0.005 0.001 0.010 0.001 0.016 0.001 0.062 0 0.113-0.051 0.113-0.113 0-0.006-0-0.011-0.001-0.017l0 0.001v-1.851l0.523-0.498 1.876 2.387c0.042 0.054 0.106 0.088 0.179 0.089h1.136c0.059 0 0.093-0.017 0.102-0.051 0.006-0.013 0.009-0.029 0.009-0.045 0-0.032-0.013-0.062-0.035-0.083h-0l-2.476-3.076 2.375-2.297c0.015-0.018 0.024-0.041 0.024-0.067 0-0.018-0.004-0.034-0.012-0.049l0 0.001c-0.015-0.038-0.051-0.064-0.093-0.064-0.003 0-0.006 0-0.009 0l0-0h-1.174c-0.072 0.005-0.135 0.038-0.178 0.089l-0 0-2.246 2.272v-5.195c0.001-0.005 0.001-0.010 0.001-0.016 0-0.062-0.051-0.113-0.113-0.113-0.006 0-0.011 0-0.017 0.001l0.001-0z"/> </g>
</svg>