<?xml version="1.0" encoding="utf-8"?>
<!-- Generator: Adobe Illustrator 24.3.0, SVG Export Plug-In . SVG Version: 6.00 Build 0)  -->
<svg version="1.0" id="katman_1" xmlns="http://www.w3.org/2000/svg" xmlns:xlink="http://www.w3.org/1999/xlink" x="0px" y="0px"
	 viewBox="0 0 841.89 595.28" style="enable-background:new 0 0 841.89 595.28;" xml:space="preserve">
<style type="text/css">
	.st0{fill:#010202;}
	.st1{fill:#E53112;}
</style>
<g>
	<polygon class="st0" points="309.16,326.21 309.16,340.21 257.96,340.21 257.96,326.21 275.06,326.21 275.06,261.41 257.96,261.41 
		257.96,247.41 292.26,247.41 292.26,326.21 	"/>
	<polygon class="st0" points="370.46,326.21 370.46,340.21 319.26,340.21 319.26,326.21 336.26,326.21 336.26,261.41 319.26,261.41 
		319.26,247.41 353.56,247.41 353.56,326.21 	"/>
	<path class="st0" d="M390.96,340.21v-54h-16.3v-14h16.3v-5.5c0-12.5,6.5-19.2,19.9-19.2h19.3v13.7h-16.5c-4.2,0-5.9,1.8-5.9,5.9v5
		h22.4v14h-22.2v54h-17L390.96,340.21L390.96,340.21z"/>
	<path class="st0" d="M470.26,271.41c-20.7,0-34.7,14-34.7,34.8s14,34.8,34.7,34.8s34.8-13.9,34.8-34.8S491.06,271.41,470.26,271.41
		z M470.26,326.81c-10.4,0-17.2-8.6-17.2-20.7s6.8-20.7,17.2-20.7s17.3,8.6,17.3,20.7C487.56,318.31,480.76,326.81,470.26,326.81z"
		/>
	<path class="st0" d="M562.56,272.21h17.1v68h-16.7v-8.3c-4.3,5.1-10.3,9.1-19.8,9.1c-13.8,0-26.3-7.1-26.3-30.4v-38.4h17.1v37
		c0,11.3,4.1,17.6,13.5,17.6c9.4,0,15.1-6.9,15.1-19.2V272.21L562.56,272.21z"/>
	<path class="st0" d="M722.86,247.41v32.9c-4.3-5.3-11-9-20.2-9c-17.9,0-31.7,13.7-31.7,34.7c0,21,13.3,34.9,31.4,34.9
		c9.9,0,16.6-4.7,21-10.6v9.8h16.7v-92.7H722.86z M705.76,326.81c-10.6,0-17.4-8.5-17.4-20.7c0-12.2,6.8-20.7,17.4-20.7
		s17.3,8.5,17.3,20.8C723.06,318.41,716.26,326.81,705.76,326.81z"/>
</g>
<path class="st0" d="M84.46,340.21l-21.1-68h19.6l12.5,48.9l13.5-48.9h19.7l13.5,48.9l12.5-48.9h19.6l-21.4,68h-20.9l-13.2-49.1
	l-13.3,49.1C105.46,340.21,84.46,340.21,84.46,340.21z"/>
<circle class="st1" cx="768.06" cy="329.51" r="11.4"/>
<circle class="st1" cx="768.06" cy="282.81" r="11.4"/>
<path class="st0" d="M247.86,310.11c0.3-2.1,0.5-4.6,0.5-6.2c-0.2-20-13.6-32.6-33.4-32.6s-34,13.8-34,34.9s13.4,34.7,35.2,34.7
	c17.6,0,29.1-10.5,31.2-23.8h-16.9c-1.7,6.8-7.2,10.5-15,10.5c-9.8,0-16.3-6.5-16.7-16.8v-0.8h49.1
	C247.86,310.01,247.86,310.11,247.86,310.11z M214.96,284.41c8.6,0,14.5,4.8,16,13.6h-31.7
	C200.46,289.61,206.86,284.41,214.96,284.41z"/>
<path class="st0" d="M613.46,340.21h-17.1v-68h16.7v8.3c4.3-5.1,10.3-9.1,19.8-9.1c13.8,0,26.3,7.1,26.3,30.4v38.4h-17.1v-37.1
	c0-11.3-4.1-17.6-13.5-17.6s-15.1,6.9-15.1,19.2L613.46,340.21L613.46,340.21L613.46,340.21z"/>
</svg>
